<svg xmlns="http://www.w3.org/2000/svg" xmlns:xlink="http://www.w3.org/1999/xlink" width="500" zoomAndPan="magnify" viewBox="0 0 375 374.999991" height="500" preserveAspectRatio="xMidYMid meet" version="1.0"><defs><clipPath id="id1"><path d="M 112.5 169.6875 L 262.5 169.6875 L 262.5 205.6875 L 112.5 205.6875 Z M 112.5 169.6875 " clip-rule="nonzero"/></clipPath></defs><g clip-path="url(#id1)"><path fill="rgb(100%, 100%, 100%)" d="M 186.132812 180.410156 C 186.398438 179.945312 186.476562 179.964844 186.914062 180.300781 C 187.273438 180.578125 187.699219 180.761719 188.09375 181 C 188.613281 181.3125 189.121094 181.644531 189.644531 181.953125 C 190.199219 182.28125 190.789062 182.550781 191.324219 182.914062 C 191.894531 183.304688 192.449219 183.738281 192.957031 184.214844 C 193.53125 184.753906 194.140625 185.230469 194.863281 185.542969 C 194.871094 185.546875 194.886719 185.546875 194.894531 185.554688 C 195.253906 185.800781 195.597656 186.027344 196.09375 185.957031 C 196.238281 185.933594 196.414062 186.296875 196.613281 186.4375 C 196.933594 186.667969 197.234375 186.917969 197.710938 186.664062 C 198.09375 186.457031 198.582031 186.457031 198.992188 186.289062 C 199.515625 186.070312 200.007812 185.78125 200.507812 185.503906 C 200.71875 185.386719 200.914062 185.238281 201.09375 185.078125 C 201.234375 184.953125 201.40625 184.800781 201.449219 184.632812 C 201.570312 184.152344 202.003906 184.082031 202.332031 183.878906 C 202.691406 183.660156 203.074219 183.476562 203.425781 183.25 C 204.027344 182.863281 204.617188 182.453125 205.210938 182.054688 C 205.574219 181.8125 205.925781 181.558594 206.296875 181.332031 C 206.921875 180.953125 207.5625 180.613281 208.179688 180.222656 C 208.707031 179.882812 209.207031 179.5 209.722656 179.132812 C 210.714844 178.425781 211.691406 177.703125 212.695312 177.019531 C 213.152344 176.707031 213.324219 176.789062 213.671875 177.25 C 213.960938 177.632812 214.277344 177.996094 214.613281 178.332031 C 214.703125 178.417969 214.953125 178.4375 215.074219 178.378906 C 215.671875 178.089844 216.238281 177.746094 216.835938 177.464844 C 217.144531 177.320312 217.496094 177.261719 217.828125 177.167969 C 218.011719 177.113281 218.199219 177.023438 218.378906 177.023438 C 218.648438 177.023438 218.933594 177.054688 219.1875 177.140625 C 219.5 177.25 219.734375 177.363281 219.996094 176.992188 C 220.195312 176.710938 220.5625 176.558594 220.824219 176.3125 C 221.128906 176.03125 221.40625 175.71875 221.6875 175.410156 C 222.125 174.925781 222.730469 174.738281 223.277344 174.4375 C 223.679688 174.21875 224.105469 173.988281 224.28125 173.507812 C 224.347656 173.316406 224.363281 173.113281 224.640625 173.085938 C 224.949219 173.058594 225.230469 173.0625 225.441406 173.335938 C 225.847656 173.863281 226.414062 174.203125 226.914062 174.625 C 227.507812 175.121094 228.136719 175.578125 228.722656 176.085938 C 229.128906 176.4375 229.480469 176.851562 229.867188 177.226562 C 230.148438 177.5 230.445312 177.75 230.730469 178.019531 C 231.101562 178.371094 231.460938 178.742188 231.839844 179.085938 C 232.371094 179.574219 232.902344 180.0625 233.460938 180.519531 C 233.773438 180.777344 234.140625 180.96875 234.476562 181.199219 C 234.792969 181.414062 235.09375 181.652344 235.410156 181.859375 C 236.109375 182.308594 236.820312 182.742188 237.523438 183.191406 C 237.820312 183.382812 238.054688 183.289062 238.261719 183.039062 C 238.527344 182.714844 238.78125 182.378906 239.054688 182.058594 C 239.484375 181.566406 240.5625 181.246094 241.175781 181.679688 C 241.585938 181.972656 242.003906 182.25 242.328125 182.65625 C 242.808594 183.261719 243.335938 183.832031 243.851562 184.414062 C 243.992188 184.570312 244.164062 184.699219 244.308594 184.851562 C 244.609375 185.171875 244.773438 185.566406 244.78125 185.996094 C 244.789062 187.042969 245.140625 188.015625 245.355469 189.015625 C 245.457031 189.484375 245.53125 189.957031 245.605469 190.429688 C 245.691406 190.976562 245.828125 191.496094 246.304688 191.84375 C 246.671875 192.113281 247.421875 191.984375 247.667969 191.597656 C 247.828125 191.347656 247.96875 191.167969 248.3125 191.132812 C 248.5 191.113281 248.664062 190.816406 248.820312 190.628906 C 249.074219 190.324219 249.308594 190 249.570312 189.703125 C 249.703125 189.546875 249.851562 189.566406 250.039062 189.699219 C 250.824219 190.242188 251.601562 190.808594 252.429688 191.269531 C 252.933594 191.550781 253.304688 191.976562 253.765625 192.273438 C 254.792969 192.929688 255.257812 194.09375 256.1875 194.824219 C 256.46875 195.042969 256.722656 195.300781 256.984375 195.546875 C 257.132812 195.6875 257.265625 195.835938 257.40625 195.984375 C 258.15625 196.78125 258.902344 197.578125 259.652344 198.375 C 260.042969 198.785156 260.449219 199.179688 260.832031 199.59375 C 261.128906 199.914062 261.4375 200.234375 261.675781 200.601562 C 261.886719 200.929688 262.03125 201.308594 262.164062 201.679688 C 262.246094 201.898438 262.097656 202.050781 261.878906 202.019531 C 261.503906 201.960938 261.105469 201.929688 260.773438 201.761719 C 259.773438 201.261719 258.777344 200.734375 257.816406 200.152344 C 257.230469 199.796875 256.730469 199.292969 256.160156 198.902344 C 255.6875 198.574219 255.167969 198.3125 254.671875 198.027344 C 254.023438 197.65625 253.378906 197.28125 252.71875 196.925781 C 252.625 196.878906 252.429688 196.917969 252.335938 196.988281 C 251.929688 197.304688 251.613281 197.089844 251.308594 196.828125 C 250.929688 196.503906 250.558594 196.167969 250.191406 195.824219 C 249.664062 195.332031 248.976562 195.25 248.34375 195.316406 C 247.488281 195.40625 246.785156 195.136719 246.078125 194.753906 C 245.976562 194.699219 245.882812 194.636719 245.777344 194.605469 C 245.105469 194.40625 244.980469 193.722656 244.609375 193.261719 C 244.371094 192.964844 244.191406 192.617188 243.964844 192.308594 C 243.867188 192.179688 243.726562 192.066406 243.585938 191.992188 C 243.113281 191.738281 242.949219 191.238281 242.664062 190.835938 C 242.242188 190.234375 241.871094 189.601562 241.488281 188.972656 C 241.335938 188.722656 241.21875 188.457031 241.074219 188.203125 C 240.980469 188.046875 240.847656 187.90625 240.761719 187.746094 C 240.707031 187.636719 240.648438 187.488281 240.675781 187.378906 C 240.730469 187.109375 240.785156 186.996094 240.386719 186.953125 C 239.890625 186.898438 239.40625 186.648438 238.933594 186.441406 C 238.261719 186.152344 237.609375 185.816406 236.941406 185.511719 C 236.847656 185.472656 236.730469 185.496094 236.625 185.492188 C 236.636719 185.59375 236.617188 185.714844 236.667969 185.789062 C 236.949219 186.203125 237.25 186.605469 237.539062 187.015625 C 237.605469 187.113281 237.65625 187.230469 237.699219 187.34375 C 237.832031 187.695312 237.625 187.957031 237.261719 187.914062 C 236.808594 187.859375 236.355469 188.246094 236.355469 188.707031 C 236.355469 189.003906 236.375 189.300781 236.402344 189.597656 C 236.433594 189.960938 236.269531 190.183594 236.011719 190.097656 C 235.953125 190.078125 235.882812 190.035156 235.855469 189.988281 C 235.589844 189.535156 235.34375 189.066406 235.0625 188.625 C 235.003906 188.53125 234.820312 188.507812 234.691406 188.472656 C 234.574219 188.4375 234.445312 188.449219 234.332031 188.40625 C 234.21875 188.363281 234.066406 188.195312 234.023438 188.222656 C 233.835938 188.347656 233.632812 188.496094 233.523438 188.6875 C 233.292969 189.078125 233.082031 189.449219 232.578125 189.5 C 232.183594 189.539062 232.128906 189.464844 232.238281 189.089844 C 232.265625 189.003906 232.214844 188.871094 232.15625 188.792969 C 232.0625 188.671875 231.929688 188.578125 231.820312 188.464844 C 231.351562 187.972656 230.882812 187.476562 230.417969 186.980469 C 230.109375 186.65625 229.828125 186.304688 229.492188 186.015625 C 229.3125 185.859375 229.035156 185.695312 228.824219 185.71875 C 228.382812 185.765625 228.097656 185.539062 227.785156 185.324219 C 227.179688 184.90625 226.566406 184.507812 225.976562 184.074219 C 225.777344 183.925781 225.648438 183.675781 225.46875 183.492188 C 225.125 183.144531 224.785156 182.789062 224.414062 182.46875 C 223.777344 181.929688 223.121094 181.414062 222.46875 180.894531 C 222.382812 180.828125 222.265625 180.773438 222.160156 180.765625 C 221.527344 180.710938 220.890625 180.6875 220.261719 180.625 C 219.671875 180.5625 219.082031 180.480469 218.496094 180.378906 C 217.964844 180.28125 217.484375 180.417969 217.027344 180.664062 C 216.683594 180.84375 216.304688 180.980469 216.121094 181.382812 C 216.09375 181.449219 215.945312 181.5 215.859375 181.492188 C 214.960938 181.417969 214.066406 181.300781 213.167969 181.246094 C 212.570312 181.203125 211.960938 181.203125 211.359375 181.246094 C 211.042969 181.269531 210.738281 181.417969 210.429688 181.519531 C 210.355469 181.542969 210.277344 181.585938 210.234375 181.648438 C 209.839844 182.1875 209.332031 182.585938 208.742188 182.886719 C 208.148438 183.191406 207.707031 183.6875 207.199219 184.105469 C 206.996094 184.269531 206.742188 184.375 206.511719 184.503906 C 206.207031 184.675781 205.898438 184.835938 205.597656 185.003906 C 205.398438 185.117188 205.273438 185.246094 205.234375 185.519531 C 205.203125 185.738281 204.976562 186 204.773438 186.105469 C 204.082031 186.453125 203.363281 186.746094 202.648438 187.050781 C 201.980469 187.332031 201.3125 187.617188 200.632812 187.863281 C 200.132812 188.046875 199.609375 188.167969 199.097656 188.328125 C 198.964844 188.371094 198.847656 188.453125 198.722656 188.519531 C 198.800781 188.605469 198.898438 188.679688 198.957031 188.78125 C 199.296875 189.382812 199.953125 189.355469 200.484375 189.578125 C 201.351562 189.945312 202.226562 190.285156 203.089844 190.65625 C 203.886719 190.996094 204.675781 191.363281 205.457031 191.710938 C 205.535156 191.566406 205.59375 191.386719 205.710938 191.273438 C 205.792969 191.195312 205.96875 191.15625 206.082031 191.179688 C 206.460938 191.269531 206.832031 191.398438 207.207031 191.511719 C 207.753906 191.675781 207.789062 191.609375 207.859375 191.085938 C 207.914062 190.71875 207.835938 190.332031 207.796875 189.953125 C 207.769531 189.703125 207.996094 189.511719 208.261719 189.613281 C 208.828125 189.828125 209.382812 190.0625 209.9375 190.300781 C 210.234375 190.429688 210.535156 190.5625 210.808594 190.730469 C 211.257812 191.007812 211.703125 191.300781 212.121094 191.625 C 212.277344 191.75 212.417969 191.972656 212.445312 192.167969 C 212.515625 192.640625 212.800781 192.894531 213.195312 193.03125 C 214.007812 193.316406 214.835938 193.5625 215.652344 193.84375 C 216.230469 194.039062 216.808594 194.242188 217.363281 194.492188 C 217.761719 194.671875 218.125 194.945312 218.511719 195.160156 C 219.074219 195.480469 219.636719 195.804688 220.21875 196.09375 C 220.644531 196.308594 221.089844 196.472656 221.53125 196.65625 C 222.050781 196.875 222.5625 197.109375 223.089844 197.300781 C 223.679688 197.519531 224.285156 197.691406 224.878906 197.898438 C 225.453125 198.09375 226.019531 198.304688 226.585938 198.515625 C 227.136719 198.71875 227.683594 198.929688 228.230469 199.136719 C 228.648438 199.296875 229.101562 199.394531 229.300781 199.882812 C 229.386719 200.082031 229.316406 200.273438 229.0625 200.28125 C 228.882812 200.289062 228.699219 200.171875 228.519531 200.171875 C 228.042969 200.171875 227.570312 200.195312 227.101562 200.230469 C 226.890625 200.242188 226.882812 200.394531 227.007812 200.511719 C 227.210938 200.6875 227.421875 200.863281 227.65625 200.988281 C 228.03125 201.191406 228.367188 201.722656 228.34375 202.152344 C 228.320312 202.621094 228.691406 203.125 229.082031 203.359375 C 229.480469 203.597656 229.828125 203.925781 230.179688 204.238281 C 230.464844 204.488281 230.734375 204.765625 230.992188 205.046875 C 231.105469 205.171875 231.257812 205.363281 231.230469 205.480469 C 231.179688 205.675781 230.957031 205.675781 230.773438 205.59375 C 230.03125 205.257812 229.28125 204.941406 228.554688 204.574219 C 227.859375 204.222656 227.1875 203.824219 226.503906 203.441406 C 226.261719 203.308594 226.023438 203.167969 225.785156 203.039062 C 225.371094 202.8125 224.960938 202.582031 224.542969 202.371094 C 224.011719 202.097656 223.46875 201.84375 222.933594 201.578125 C 222.210938 201.226562 221.507812 200.828125 220.761719 200.539062 C 220.132812 200.296875 219.453125 200.191406 218.800781 200.011719 C 218.285156 199.863281 217.789062 199.632812 217.265625 199.539062 C 216.207031 199.347656 215.3125 198.761719 214.339844 198.378906 C 214.152344 198.308594 213.972656 198.222656 213.78125 198.175781 C 213.292969 198.058594 213.070312 197.71875 213.035156 197.253906 C 213.011719 197.007812 212.894531 196.9375 212.691406 196.871094 C 212.417969 196.785156 212.164062 196.632812 211.894531 196.53125 C 211.621094 196.421875 211.5 196.507812 211.53125 196.800781 C 211.570312 197.109375 211.632812 197.421875 211.722656 197.71875 C 211.816406 198.03125 211.632812 198.304688 211.324219 198.21875 C 210.886719 198.09375 210.464844 197.90625 210.039062 197.75 C 209.902344 197.699219 209.761719 197.660156 209.628906 197.609375 C 208.957031 197.355469 208.28125 197.113281 207.621094 196.835938 C 207.292969 196.699219 206.996094 196.484375 206.679688 196.320312 C 206.148438 196.050781 205.621094 195.769531 205.078125 195.539062 C 204.636719 195.347656 204.164062 195.238281 203.714844 195.066406 C 203.058594 194.816406 202.410156 194.539062 201.757812 194.285156 C 200.769531 193.898438 199.785156 193.511719 198.789062 193.148438 C 198.199219 192.9375 197.582031 192.808594 197.007812 192.570312 C 196.671875 192.429688 196.40625 192.128906 196.097656 191.917969 C 195.15625 191.285156 194.425781 190.421875 193.671875 189.59375 C 193.140625 189.007812 192.632812 188.390625 192.058594 187.855469 C 191.855469 187.664062 191.472656 187.667969 191.105469 187.570312 C 191.300781 188.261719 191.507812 188.847656 191.621094 189.453125 C 191.683594 189.800781 191.597656 190.175781 191.566406 190.535156 C 191.558594 190.59375 191.472656 190.6875 191.410156 190.695312 C 190.878906 190.785156 190.964844 191.234375 190.894531 191.589844 C 190.886719 191.609375 190.890625 191.636719 190.894531 191.65625 C 191 192.101562 190.964844 192.539062 190.910156 192.988281 C 190.871094 193.316406 190.769531 193.492188 190.453125 193.5625 C 189.816406 193.699219 189.835938 193.699219 190.007812 194.324219 C 190.199219 195.003906 190.546875 195.585938 190.917969 196.171875 C 190.992188 196.28125 190.929688 196.476562 190.929688 196.632812 C 190.886719 196.65625 190.839844 196.675781 190.792969 196.699219 C 190.3125 196.351562 189.8125 196.023438 189.351562 195.648438 C 188.769531 195.171875 188.199219 194.671875 187.648438 194.152344 C 187.300781 193.824219 187.011719 193.4375 186.683594 193.085938 C 186.542969 192.933594 186.363281 192.8125 186.222656 192.660156 C 185.949219 192.363281 185.640625 192.089844 185.4375 191.75 C 185.0625 191.136719 184.714844 190.507812 184.21875 189.96875 C 184.050781 189.792969 184.003906 189.484375 183.949219 189.222656 C 183.746094 188.238281 183.085938 187.578125 182.382812 186.949219 C 182.058594 186.65625 181.703125 186.394531 181.402344 186.078125 C 181.167969 185.839844 181.003906 185.535156 180.792969 185.269531 C 180.503906 184.90625 180.21875 184.542969 179.902344 184.203125 C 179.683594 183.96875 179.394531 183.738281 179.070312 183.910156 C 178.722656 184.101562 178.792969 184.464844 178.910156 184.785156 C 179.132812 185.398438 179.371094 186.007812 179.582031 186.625 C 179.644531 186.8125 179.679688 187.03125 179.660156 187.226562 C 179.609375 187.773438 179.933594 188.164062 180.175781 188.585938 C 180.453125 189.066406 180.710938 189.574219 181.0625 189.992188 C 181.460938 190.464844 181.566406 191.039062 181.761719 191.582031 C 181.8125 191.714844 181.75 191.886719 181.738281 192.039062 C 181.578125 192.019531 181.414062 192.011719 181.253906 191.980469 C 181.148438 191.960938 181.042969 191.914062 180.886719 191.859375 C 181.019531 192.25 181.136719 192.5625 181.242188 192.882812 C 181.414062 193.417969 181.59375 193.953125 181.75 194.492188 C 181.820312 194.734375 181.832031 194.996094 181.898438 195.238281 C 181.996094 195.570312 182.105469 195.902344 182.238281 196.222656 C 182.335938 196.453125 182.253906 196.632812 182.078125 196.699219 C 181.976562 196.738281 181.757812 196.640625 181.679688 196.535156 C 181.027344 195.664062 180.394531 194.78125 179.765625 193.890625 C 179.652344 193.730469 179.609375 193.515625 179.496094 193.351562 C 179.226562 192.960938 178.914062 192.601562 178.664062 192.203125 C 178.488281 191.921875 178.410156 191.582031 178.253906 191.285156 C 178.046875 190.898438 177.78125 190.546875 177.589844 190.15625 C 177.1875 189.332031 176.796875 188.496094 176.425781 187.652344 C 176.113281 186.9375 176.003906 186.15625 175.875 185.390625 C 175.695312 184.320312 175.335938 183.34375 174.625 182.515625 C 174.5625 182.4375 174.472656 182.378906 174.390625 182.324219 C 173.738281 181.921875 173.582031 181.171875 173.214844 180.574219 C 172.90625 180.078125 172.703125 179.515625 172.390625 179.023438 C 172.082031 178.53125 171.609375 178.195312 171.070312 177.984375 C 170.988281 177.953125 170.785156 178.066406 170.722656 178.167969 C 170.507812 178.507812 170.332031 178.867188 170.148438 179.226562 C 170.105469 179.304688 170.105469 179.40625 170.0625 179.480469 C 169.972656 179.632812 169.894531 179.804688 169.761719 179.90625 C 169.539062 180.085938 169.285156 180.230469 169.03125 180.371094 C 168.816406 180.488281 168.613281 180.457031 168.472656 180.234375 C 168.183594 179.773438 168.023438 179.769531 167.699219 180.214844 C 167.59375 180.359375 167.484375 180.503906 167.371094 180.640625 C 166.980469 181.113281 166.453125 181.386719 165.890625 181.546875 C 165.609375 181.625 165.289062 181.535156 165.03125 181.785156 C 164.824219 181.988281 164.558594 182.132812 164.34375 182.332031 C 164.039062 182.613281 163.773438 182.929688 163.46875 183.210938 C 163 183.644531 162.519531 184.070312 162.027344 184.476562 C 161.957031 184.535156 161.773438 184.492188 161.660156 184.449219 C 161.550781 184.402344 161.46875 184.292969 161.371094 184.21875 C 160.839844 183.808594 160.894531 183.914062 160.390625 184.332031 C 159.808594 184.8125 159.363281 185.410156 158.972656 186.046875 C 158.738281 186.429688 158.59375 186.863281 158.378906 187.257812 C 158.074219 187.800781 157.777344 188.351562 157.265625 188.746094 C 157.058594 188.90625 156.917969 189.15625 156.75 189.371094 C 156.375 189.863281 155.9375 190.316406 155.652344 190.851562 C 155.308594 191.507812 154.71875 191.925781 154.269531 192.476562 C 153.640625 193.253906 152.867188 193.917969 152.113281 194.585938 C 151.476562 195.144531 150.730469 195.589844 150.121094 196.179688 C 149.609375 196.675781 149.078125 197.117188 148.460938 197.464844 C 148.304688 197.550781 148.175781 197.675781 148.03125 197.777344 C 147.597656 198.078125 147.253906 197.859375 146.925781 197.570312 C 146.785156 197.445312 146.640625 197.316406 146.515625 197.175781 C 146.339844 196.96875 146.28125 196.761719 146.449219 196.496094 C 146.796875 195.9375 146.410156 195.257812 145.769531 195.191406 C 145.511719 195.164062 145.25 195.042969 145.023438 194.90625 C 144.367188 194.511719 143.714844 194.105469 143.09375 193.660156 C 142.738281 193.40625 142.433594 193.078125 142.128906 192.757812 C 141.859375 192.480469 141.402344 192.394531 141.097656 192.625 C 140.65625 192.964844 140.183594 193.257812 139.828125 193.714844 C 139.660156 193.925781 139.332031 194.003906 139.089844 194.164062 C 138.773438 194.375 138.472656 194.609375 138.160156 194.824219 C 137.546875 195.25 136.921875 195.664062 136.3125 196.097656 C 135.886719 196.398438 135.46875 196.710938 135.058594 197.035156 C 134.90625 197.160156 134.808594 197.355469 134.652344 197.472656 C 134.113281 197.875 133.546875 198.234375 133.015625 198.644531 C 132.53125 199.015625 132.105469 199.460938 131.613281 199.816406 C 131.296875 200.046875 131.058594 200.441406 130.609375 200.429688 C 130.101562 200.417969 129.589844 200.414062 129.097656 200.324219 C 128.792969 200.265625 128.527344 200.03125 128.230469 199.917969 C 127.996094 199.824219 127.730469 199.804688 127.484375 199.734375 C 127.230469 199.660156 126.980469 199.558594 126.730469 199.46875 C 126.546875 199.398438 126.355469 199.253906 126.179688 199.269531 C 125.785156 199.296875 125.574219 199 125.28125 198.851562 C 124.921875 198.667969 124.574219 198.457031 124.21875 198.265625 C 124.027344 198.160156 123.832031 198.042969 123.625 197.976562 C 123.328125 197.886719 123.015625 197.757812 122.71875 197.785156 C 122.257812 197.824219 121.785156 197.917969 121.359375 198.09375 C 120.722656 198.355469 120.117188 198.6875 119.515625 199.027344 C 118.871094 199.394531 118.25 199.808594 117.617188 200.203125 C 116.65625 200.800781 115.699219 201.402344 114.726562 201.984375 C 114.429688 202.164062 114.101562 202.269531 113.734375 202.160156 C 113.570312 202.113281 113.378906 202.179688 113.210938 202.136719 C 113.050781 202.101562 112.855469 202.023438 112.785156 201.898438 C 112.738281 201.8125 112.839844 201.554688 112.941406 201.484375 C 113.636719 201.03125 114.351562 200.609375 115.054688 200.167969 C 115.480469 199.898438 115.898438 199.617188 116.320312 199.339844 C 116.640625 199.132812 116.964844 198.929688 117.285156 198.722656 C 117.386719 198.65625 117.496094 198.59375 117.589844 198.515625 C 118.097656 198.078125 118.585938 197.625 119.109375 197.210938 C 119.742188 196.703125 120.441406 196.273438 121.027344 195.722656 C 121.496094 195.285156 121.984375 194.898438 122.523438 194.558594 C 122.808594 194.371094 123.046875 194.390625 123.289062 194.640625 C 123.410156 194.765625 123.566406 194.855469 123.699219 194.96875 C 123.839844 195.09375 123.964844 195.234375 124.109375 195.351562 C 124.351562 195.542969 124.605469 195.71875 124.851562 195.902344 C 125.210938 196.171875 125.558594 196.453125 125.925781 196.710938 C 126.144531 196.863281 126.394531 196.972656 126.628906 197.105469 C 127.300781 197.488281 128.027344 197.667969 128.792969 197.660156 C 129.066406 197.65625 129.347656 197.570312 129.605469 197.46875 C 130.851562 196.996094 131.804688 196.046875 132.933594 195.378906 C 133.542969 195.019531 134.140625 194.632812 134.734375 194.25 C 135.15625 193.976562 135.554688 193.675781 135.976562 193.402344 C 136.292969 193.199219 136.640625 193.039062 136.953125 192.828125 C 137.382812 192.53125 137.789062 192.191406 138.21875 191.886719 C 138.433594 191.734375 138.683594 191.636719 138.898438 191.484375 C 139.164062 191.300781 139.417969 191.097656 139.65625 190.878906 C 140.074219 190.503906 140.585938 190.269531 140.988281 189.835938 C 141.527344 189.253906 142.21875 188.789062 142.914062 188.398438 C 143.539062 188.046875 144.421875 188.0625 144.679688 188.972656 C 144.734375 189.179688 144.867188 189.363281 144.914062 189.570312 C 144.992188 189.917969 145.230469 189.929688 145.5 189.910156 C 145.757812 189.894531 146.070312 189.769531 146.261719 189.875 C 146.574219 190.042969 146.855469 190.328125 147.058594 190.628906 C 147.28125 190.953125 147.410156 191.347656 147.574219 191.714844 C 147.675781 191.9375 147.78125 192.160156 147.871094 192.386719 C 147.957031 192.601562 148.027344 192.816406 148.105469 193.039062 C 148.460938 192.777344 148.773438 192.566406 149.0625 192.324219 C 149.292969 192.132812 149.488281 191.894531 149.710938 191.6875 C 150.296875 191.152344 150.890625 190.621094 151.480469 190.089844 C 151.652344 189.9375 151.820312 189.773438 152.011719 189.644531 C 152.355469 189.417969 152.507812 189.472656 152.746094 189.800781 C 152.839844 189.929688 152.96875 190.050781 153.109375 190.125 C 153.433594 190.300781 153.617188 190.226562 153.769531 189.878906 C 153.984375 189.382812 154.175781 188.878906 154.398438 188.390625 C 154.679688 187.769531 154.960938 187.148438 155.292969 186.558594 C 155.410156 186.347656 155.695312 186.238281 155.886719 186.0625 C 156.203125 185.769531 156.5 185.457031 156.820312 185.167969 C 157.453125 184.59375 157.664062 183.761719 158.074219 183.046875 C 158.203125 182.820312 158.207031 182.523438 158.292969 182.265625 C 158.46875 181.722656 158.644531 181.183594 158.855469 180.652344 C 159.046875 180.179688 159.28125 179.71875 159.5 179.253906 C 159.671875 178.882812 159.9375 178.730469 160.308594 178.878906 C 160.71875 179.046875 161.109375 179.269531 161.496094 179.496094 C 161.730469 179.636719 161.890625 179.652344 162.101562 179.421875 C 162.539062 178.949219 163.054688 178.628906 163.75 178.691406 C 163.90625 178.703125 164.109375 178.570312 164.238281 178.445312 C 164.453125 178.234375 164.621094 177.972656 164.8125 177.734375 C 165.1875 177.261719 165.574219 176.796875 165.9375 176.316406 C 166.214844 175.949219 166.476562 175.570312 166.734375 175.1875 C 167.054688 174.714844 167.363281 174.246094 167.800781 173.847656 C 168.210938 173.472656 168.46875 172.933594 168.804688 172.472656 C 169.339844 171.738281 169.769531 170.914062 170.488281 170.316406 C 170.9375 169.945312 171.460938 169.75 172.019531 169.707031 C 172.53125 169.667969 172.925781 169.984375 173.078125 170.5 C 173.246094 171.066406 173.582031 171.519531 173.945312 171.960938 C 174.316406 172.414062 174.6875 172.863281 175.046875 173.324219 C 175.191406 173.515625 175.308594 173.507812 175.453125 173.34375 C 175.585938 173.191406 175.710938 173.023438 175.863281 172.890625 C 175.992188 172.777344 176.1875 172.597656 176.296875 172.632812 C 176.59375 172.722656 176.949219 172.667969 177.128906 173.113281 C 177.253906 173.429688 177.640625 173.664062 177.953125 173.867188 C 178.382812 174.148438 178.878906 174.320312 179.296875 174.617188 C 179.636719 174.855469 179.925781 175.183594 180.199219 175.507812 C 180.578125 175.957031 180.933594 176.425781 181.265625 176.910156 C 181.664062 177.488281 181.992188 178.117188 182.410156 178.675781 C 182.894531 179.316406 183.257812 180.070312 183.984375 180.503906 C 184.105469 180.574219 184.191406 180.710938 184.277344 180.832031 C 184.5 181.136719 184.691406 181.167969 184.949219 180.882812 C 185.273438 180.519531 185.636719 180.300781 186.132812 180.410156 " fill-opacity="1" fill-rule="nonzero"/></g></svg>