<svg xmlns="http://www.w3.org/2000/svg" xmlns:xlink="http://www.w3.org/1999/xlink" width="500" zoomAndPan="magnify" viewBox="0 0 375 374.999991" height="500" preserveAspectRatio="xMidYMid meet" version="1.0"><defs><clipPath id="id1"><path d="M 0 143 L 375 143 L 375 232.21875 L 0 232.21875 Z M 0 143 " clip-rule="nonzero"/></clipPath></defs><g clip-path="url(#id1)"><path fill="rgb(100%, 100%, 100%)" d="M 184.078125 169.550781 C 184.75 168.394531 184.9375 168.445312 186.03125 169.277344 C 186.933594 169.964844 188.003906 170.425781 188.980469 171.007812 C 190.28125 171.789062 191.550781 172.613281 192.859375 173.375 C 194.25 174.191406 195.726562 174.863281 197.058594 175.765625 C 198.488281 176.730469 199.875 177.800781 201.140625 178.980469 C 202.582031 180.316406 204.097656 181.5 205.910156 182.277344 C 205.933594 182.289062 205.964844 182.289062 205.988281 182.304688 C 206.890625 182.917969 207.746094 183.480469 208.980469 183.300781 C 209.34375 183.25 209.789062 184.144531 210.28125 184.492188 C 211.085938 185.066406 211.832031 185.683594 213.023438 185.054688 C 213.984375 184.542969 215.207031 184.546875 216.226562 184.125 C 217.535156 183.585938 218.773438 182.871094 220.019531 182.179688 C 220.546875 181.890625 221.039062 181.519531 221.488281 181.121094 C 221.839844 180.8125 222.265625 180.441406 222.375 180.019531 C 222.679688 178.828125 223.761719 178.652344 224.585938 178.152344 C 225.480469 177.605469 226.433594 177.152344 227.316406 176.589844 C 228.820312 175.628906 230.292969 174.617188 231.777344 173.628906 C 232.683594 173.027344 233.570312 172.398438 234.496094 171.839844 C 236.050781 170.898438 237.660156 170.054688 239.195312 169.085938 C 240.519531 168.242188 241.773438 167.292969 243.058594 166.382812 C 245.53125 164.636719 247.976562 162.84375 250.488281 161.144531 C 251.636719 160.367188 252.0625 160.578125 252.933594 161.714844 C 253.648438 162.664062 254.4375 163.5625 255.285156 164.398438 C 255.503906 164.617188 256.128906 164.660156 256.4375 164.515625 C 257.929688 163.800781 259.347656 162.949219 260.84375 162.253906 C 261.617188 161.894531 262.492188 161.746094 263.320312 161.507812 C 263.777344 161.375 264.242188 161.152344 264.699219 161.152344 C 265.375 161.15625 266.082031 161.234375 266.714844 161.449219 C 267.5 161.710938 268.082031 162 268.738281 161.082031 C 269.238281 160.382812 270.160156 160.003906 270.816406 159.394531 C 271.578125 158.695312 272.265625 157.917969 272.96875 157.15625 C 274.0625 155.957031 275.574219 155.488281 276.941406 154.746094 C 277.945312 154.203125 279.015625 153.632812 279.453125 152.441406 C 279.625 151.964844 279.660156 151.464844 280.355469 151.398438 C 281.121094 151.328125 281.820312 151.339844 282.347656 152.011719 C 283.367188 153.320312 284.78125 154.164062 286.03125 155.207031 C 287.519531 156.441406 289.09375 157.570312 290.558594 158.828125 C 291.574219 159.703125 292.449219 160.730469 293.414062 161.660156 C 294.117188 162.335938 294.867188 162.957031 295.574219 163.621094 C 296.507812 164.5 297.402344 165.414062 298.347656 166.269531 C 299.671875 167.480469 301.003906 168.691406 302.398438 169.824219 C 303.183594 170.464844 304.097656 170.933594 304.941406 171.507812 C 305.730469 172.039062 306.480469 172.628906 307.28125 173.140625 C 309.023438 174.261719 310.800781 175.332031 312.554688 176.445312 C 313.304688 176.917969 313.890625 176.691406 314.402344 176.074219 C 315.070312 175.265625 315.703125 174.433594 316.390625 173.644531 C 317.460938 172.414062 320.15625 171.621094 321.691406 172.703125 C 322.714844 173.429688 323.757812 174.109375 324.566406 175.117188 C 325.773438 176.625 327.09375 178.035156 328.378906 179.476562 C 328.730469 179.867188 329.15625 180.183594 329.519531 180.566406 C 330.269531 181.359375 330.6875 182.332031 330.699219 183.402344 C 330.726562 185.996094 331.597656 188.40625 332.140625 190.890625 C 332.394531 192.050781 332.578125 193.21875 332.765625 194.390625 C 332.980469 195.746094 333.324219 197.035156 334.515625 197.898438 C 335.429688 198.566406 337.304688 198.25 337.921875 197.289062 C 338.316406 196.667969 338.671875 196.21875 339.535156 196.132812 C 339.996094 196.085938 340.40625 195.347656 340.800781 194.882812 C 341.4375 194.128906 342.019531 193.324219 342.675781 192.589844 C 343.011719 192.207031 343.378906 192.25 343.851562 192.578125 C 345.808594 193.929688 347.75 195.328125 349.828125 196.472656 C 351.082031 197.171875 352.011719 198.230469 353.167969 198.960938 C 355.726562 200.585938 356.894531 203.476562 359.214844 205.285156 C 359.921875 205.832031 360.558594 206.46875 361.210938 207.078125 C 361.582031 207.421875 361.917969 207.796875 362.265625 208.164062 C 364.140625 210.136719 366.003906 212.117188 367.882812 214.085938 C 368.855469 215.101562 369.871094 216.082031 370.828125 217.109375 C 371.570312 217.910156 372.34375 218.703125 372.941406 219.605469 C 373.472656 220.421875 373.828125 221.363281 374.160156 222.289062 C 374.359375 222.828125 373.988281 223.207031 373.445312 223.125 C 372.511719 222.984375 371.511719 222.902344 370.6875 222.492188 C 368.179688 221.246094 365.691406 219.945312 363.296875 218.5 C 361.824219 217.613281 360.574219 216.363281 359.148438 215.394531 C 357.964844 214.582031 356.671875 213.9375 355.425781 213.226562 C 353.808594 212.304688 352.195312 211.375 350.550781 210.5 C 350.3125 210.375 349.824219 210.472656 349.59375 210.652344 C 348.570312 211.433594 347.785156 210.902344 347.023438 210.253906 C 346.074219 209.449219 345.148438 208.617188 344.234375 207.765625 C 342.90625 206.542969 341.195312 206.339844 339.609375 206.507812 C 337.472656 206.730469 335.710938 206.058594 333.941406 205.109375 C 333.695312 204.980469 333.457031 204.820312 333.195312 204.746094 C 331.515625 204.253906 331.203125 202.558594 330.269531 201.417969 C 329.671875 200.675781 329.226562 199.816406 328.65625 199.050781 C 328.417969 198.726562 328.066406 198.453125 327.710938 198.261719 C 326.535156 197.632812 326.121094 196.390625 325.414062 195.398438 C 324.359375 193.910156 323.429688 192.335938 322.472656 190.777344 C 322.09375 190.164062 321.800781 189.496094 321.4375 188.875 C 321.203125 188.480469 320.871094 188.140625 320.65625 187.742188 C 320.511719 187.46875 320.371094 187.101562 320.433594 186.824219 C 320.574219 186.160156 320.714844 185.878906 319.714844 185.773438 C 318.472656 185.640625 317.269531 185.015625 316.089844 184.507812 C 314.40625 183.785156 312.769531 182.960938 311.097656 182.203125 C 310.871094 182.101562 310.574219 182.164062 310.308594 182.148438 C 310.339844 182.398438 310.289062 182.699219 310.414062 182.886719 C 311.117188 183.914062 311.871094 184.90625 312.59375 185.925781 C 312.765625 186.171875 312.894531 186.457031 313 186.742188 C 313.328125 187.613281 312.816406 188.261719 311.90625 188.152344 C 310.769531 188.019531 309.636719 188.976562 309.632812 190.125 C 309.632812 190.855469 309.6875 191.59375 309.75 192.328125 C 309.828125 193.234375 309.421875 193.78125 308.78125 193.566406 C 308.632812 193.515625 308.460938 193.417969 308.386719 193.292969 C 307.726562 192.171875 307.113281 191.015625 306.410156 189.921875 C 306.261719 189.683594 305.804688 189.625 305.476562 189.535156 C 305.1875 189.453125 304.859375 189.484375 304.582031 189.378906 C 304.292969 189.269531 303.914062 188.847656 303.808594 188.917969 C 303.335938 189.226562 302.832031 189.597656 302.554688 190.074219 C 301.984375 191.039062 301.453125 191.960938 300.191406 192.085938 C 299.207031 192.183594 299.074219 192 299.351562 191.066406 C 299.414062 190.855469 299.285156 190.527344 299.140625 190.335938 C 298.90625 190.03125 298.574219 189.804688 298.304688 189.523438 C 297.128906 188.300781 295.960938 187.070312 294.792969 185.84375 C 294.027344 185.035156 293.316406 184.167969 292.480469 183.449219 C 292.03125 183.058594 291.335938 182.652344 290.804688 182.710938 C 289.707031 182.832031 288.996094 182.269531 288.210938 181.730469 C 286.703125 180.695312 285.164062 179.710938 283.6875 178.636719 C 283.1875 178.269531 282.871094 177.648438 282.421875 177.195312 C 281.5625 176.328125 280.714844 175.445312 279.785156 174.660156 C 278.195312 173.316406 276.550781 172.039062 274.917969 170.75 C 274.707031 170.585938 274.414062 170.453125 274.148438 170.433594 C 272.566406 170.300781 270.980469 170.242188 269.402344 170.085938 C 267.925781 169.933594 266.453125 169.726562 264.992188 169.472656 C 263.660156 169.238281 262.464844 169.570312 261.316406 170.179688 C 260.460938 170.628906 259.507812 170.960938 259.050781 171.964844 C 258.980469 172.128906 258.613281 172.257812 258.394531 172.238281 C 256.152344 172.046875 253.917969 171.765625 251.675781 171.621094 C 250.171875 171.523438 248.648438 171.523438 247.144531 171.628906 C 246.359375 171.6875 245.59375 172.054688 244.820312 172.300781 C 244.640625 172.359375 244.441406 172.46875 244.335938 172.617188 C 243.355469 173.960938 242.082031 174.949219 240.609375 175.691406 C 239.121094 176.449219 238.015625 177.679688 236.742188 178.710938 C 236.234375 179.121094 235.605469 179.382812 235.027344 179.703125 C 234.269531 180.121094 233.5 180.523438 232.742188 180.945312 C 232.246094 181.222656 231.933594 181.542969 231.832031 182.222656 C 231.753906 182.761719 231.195312 183.410156 230.679688 183.667969 C 228.953125 184.53125 227.15625 185.265625 225.375 186.015625 C 223.707031 186.714844 222.035156 187.421875 220.335938 188.03125 C 219.082031 188.484375 217.773438 188.785156 216.496094 189.179688 C 216.167969 189.285156 215.867188 189.492188 215.554688 189.65625 C 215.753906 189.871094 216 190.058594 216.140625 190.304688 C 216.988281 191.796875 218.636719 191.726562 219.964844 192.285156 C 222.125 193.191406 224.316406 194.035156 226.472656 194.953125 C 228.46875 195.796875 230.4375 196.707031 232.390625 197.570312 C 232.59375 197.207031 232.738281 196.769531 233.03125 196.484375 C 233.234375 196.289062 233.671875 196.1875 233.953125 196.253906 C 234.898438 196.472656 235.828125 196.796875 236.765625 197.074219 C 238.136719 197.480469 238.222656 197.316406 238.402344 196.019531 C 238.53125 195.109375 238.34375 194.144531 238.242188 193.214844 C 238.175781 192.59375 238.738281 192.113281 239.40625 192.367188 C 240.816406 192.902344 242.207031 193.476562 243.59375 194.066406 C 244.335938 194.390625 245.082031 194.71875 245.769531 195.140625 C 246.898438 195.828125 248.011719 196.550781 249.054688 197.359375 C 249.445312 197.664062 249.792969 198.21875 249.863281 198.703125 C 250.035156 199.875 250.753906 200.5 251.738281 200.84375 C 253.769531 201.554688 255.84375 202.15625 257.882812 202.851562 C 259.328125 203.339844 260.769531 203.84375 262.160156 204.460938 C 263.15625 204.910156 264.058594 205.582031 265.027344 206.125 C 266.4375 206.914062 267.84375 207.714844 269.296875 208.4375 C 270.359375 208.96875 271.480469 209.371094 272.578125 209.828125 C 273.875 210.367188 275.15625 210.949219 276.476562 211.429688 C 277.953125 211.964844 279.464844 212.398438 280.953125 212.90625 C 282.378906 213.398438 283.796875 213.917969 285.214844 214.4375 C 286.589844 214.941406 287.960938 215.46875 289.332031 215.980469 C 290.375 216.375 291.5 216.617188 292.003906 217.832031 C 292.210938 218.324219 292.035156 218.796875 291.40625 218.816406 C 290.953125 218.832031 290.496094 218.546875 290.046875 218.546875 C 288.863281 218.546875 287.679688 218.605469 286.5 218.6875 C 285.980469 218.722656 285.953125 219.097656 286.273438 219.382812 C 286.773438 219.824219 287.308594 220.261719 287.894531 220.574219 C 288.832031 221.070312 289.671875 222.390625 289.613281 223.457031 C 289.550781 224.617188 290.472656 225.867188 291.449219 226.445312 C 292.445312 227.035156 293.316406 227.851562 294.195312 228.621094 C 294.910156 229.25 295.585938 229.933594 296.234375 230.632812 C 296.511719 230.9375 296.898438 231.417969 296.824219 231.710938 C 296.695312 232.195312 296.144531 232.195312 295.683594 231.988281 C 293.832031 231.148438 291.953125 230.367188 290.140625 229.460938 C 288.398438 228.589844 286.714844 227.597656 285.007812 226.652344 C 284.40625 226.320312 283.8125 225.972656 283.207031 225.648438 C 282.175781 225.089844 281.148438 224.519531 280.105469 223.992188 C 278.777344 223.320312 277.425781 222.6875 276.082031 222.03125 C 274.277344 221.160156 272.515625 220.171875 270.652344 219.453125 C 269.082031 218.851562 267.382812 218.597656 265.753906 218.144531 C 264.464844 217.78125 263.21875 217.207031 261.914062 216.972656 C 259.269531 216.5 257.035156 215.046875 254.59375 214.101562 C 254.132812 213.925781 253.675781 213.714844 253.203125 213.601562 C 251.984375 213.304688 251.429688 212.460938 251.335938 211.308594 C 251.28125 210.703125 250.988281 210.527344 250.476562 210.363281 C 249.792969 210.148438 249.164062 209.769531 248.488281 209.515625 C 247.800781 209.25 247.496094 209.460938 247.582031 210.1875 C 247.671875 210.957031 247.828125 211.726562 248.054688 212.464844 C 248.292969 213.238281 247.835938 213.917969 247.058594 213.699219 C 245.964844 213.390625 244.914062 212.925781 243.847656 212.535156 C 243.507812 212.414062 243.15625 212.320312 242.820312 212.195312 C 241.140625 211.5625 239.453125 210.960938 237.800781 210.269531 C 236.980469 209.929688 236.238281 209.398438 235.445312 208.996094 C 234.125 208.328125 232.808594 207.628906 231.445312 207.054688 C 230.34375 206.585938 229.15625 206.3125 228.035156 205.886719 C 226.390625 205.269531 224.777344 204.582031 223.140625 203.949219 C 220.671875 202.992188 218.207031 202.03125 215.722656 201.132812 C 214.253906 200.605469 212.703125 200.292969 211.273438 199.699219 C 210.433594 199.351562 209.765625 198.601562 208.988281 198.082031 C 206.640625 196.507812 204.816406 194.378906 202.929688 192.320312 C 201.597656 190.867188 200.335938 189.335938 198.894531 188.007812 C 198.382812 187.535156 197.433594 187.550781 196.519531 187.300781 C 197.003906 189.011719 197.523438 190.472656 197.796875 191.972656 C 197.957031 192.832031 197.746094 193.761719 197.660156 194.652344 C 197.644531 194.804688 197.429688 195.027344 197.277344 195.050781 C 195.945312 195.273438 196.167969 196.386719 195.984375 197.265625 C 195.972656 197.320312 195.976562 197.382812 195.992188 197.433594 C 196.25 198.535156 196.164062 199.621094 196.027344 200.738281 C 195.925781 201.546875 195.679688 201.988281 194.886719 202.15625 C 193.289062 202.496094 193.335938 202.5 193.773438 204.050781 C 194.246094 205.726562 195.121094 207.179688 196.050781 208.625 C 196.230469 208.898438 196.078125 209.382812 196.078125 209.769531 C 195.964844 209.824219 195.847656 209.878906 195.734375 209.9375 C 194.53125 209.074219 193.285156 208.257812 192.132812 207.328125 C 190.667969 206.148438 189.242188 204.90625 187.871094 203.617188 C 187.003906 202.808594 186.277344 201.851562 185.460938 200.980469 C 185.105469 200.601562 184.660156 200.300781 184.304688 199.917969 C 183.625 199.191406 182.855469 198.503906 182.34375 197.667969 C 181.402344 196.140625 180.539062 194.585938 179.292969 193.253906 C 178.882812 192.816406 178.757812 192.050781 178.625 191.402344 C 178.121094 188.957031 176.46875 187.320312 174.710938 185.761719 C 173.894531 185.035156 173.011719 184.382812 172.253906 183.605469 C 171.671875 183.011719 171.257812 182.253906 170.734375 181.601562 C 170.011719 180.703125 169.296875 179.792969 168.507812 178.953125 C 167.964844 178.375 167.238281 177.800781 166.429688 178.234375 C 165.554688 178.703125 165.734375 179.601562 166.023438 180.398438 C 166.578125 181.917969 167.175781 183.425781 167.707031 184.957031 C 167.867188 185.429688 167.953125 185.964844 167.902344 186.453125 C 167.773438 187.8125 168.582031 188.777344 169.191406 189.824219 C 169.882812 191.011719 170.523438 192.269531 171.40625 193.304688 C 172.40625 194.480469 172.664062 195.90625 173.15625 197.253906 C 173.277344 197.578125 173.125 198.003906 173.09375 198.382812 C 172.691406 198.335938 172.285156 198.3125 171.886719 198.238281 C 171.617188 198.1875 171.359375 198.070312 170.960938 197.9375 C 171.300781 198.902344 171.589844 199.683594 171.851562 200.472656 C 172.289062 201.800781 172.730469 203.125 173.128906 204.46875 C 173.304688 205.066406 173.328125 205.710938 173.5 206.3125 C 173.738281 207.140625 174.011719 207.960938 174.347656 208.757812 C 174.585938 209.324219 174.386719 209.765625 173.949219 209.933594 C 173.695312 210.03125 173.140625 209.785156 172.945312 209.527344 C 171.316406 207.367188 169.738281 205.175781 168.167969 202.972656 C 167.878906 202.570312 167.773438 202.039062 167.492188 201.632812 C 166.820312 200.667969 166.03125 199.78125 165.40625 198.789062 C 164.96875 198.089844 164.773438 197.246094 164.382812 196.511719 C 163.871094 195.558594 163.207031 194.683594 162.726562 193.714844 C 161.714844 191.667969 160.742188 189.597656 159.820312 187.511719 C 159.03125 185.730469 158.761719 183.796875 158.4375 181.902344 C 157.984375 179.25 157.089844 176.824219 155.3125 174.769531 C 155.152344 174.582031 154.933594 174.433594 154.722656 174.300781 C 153.089844 173.296875 152.703125 171.441406 151.78125 169.957031 C 151.019531 168.722656 150.511719 167.332031 149.730469 166.109375 C 148.957031 164.898438 147.773438 164.0625 146.429688 163.539062 C 146.21875 163.457031 145.714844 163.742188 145.558594 163.988281 C 145.023438 164.835938 144.578125 165.730469 144.117188 166.621094 C 144.015625 166.8125 144.015625 167.0625 143.90625 167.25 C 143.683594 167.621094 143.484375 168.050781 143.15625 168.304688 C 142.59375 168.75 141.960938 169.109375 141.328125 169.453125 C 140.792969 169.742188 140.285156 169.667969 139.933594 169.113281 C 139.210938 167.972656 138.8125 167.964844 137.996094 169.066406 C 137.730469 169.425781 137.460938 169.78125 137.175781 170.125 C 136.199219 171.300781 134.882812 171.976562 133.476562 172.367188 C 132.769531 172.5625 131.972656 172.339844 131.332031 172.960938 C 130.808594 173.46875 130.148438 173.828125 129.609375 174.320312 C 128.851562 175.015625 128.183594 175.804688 127.425781 176.5 C 126.246094 177.574219 125.046875 178.628906 123.8125 179.636719 C 123.636719 179.777344 123.183594 179.675781 122.902344 179.5625 C 122.628906 179.453125 122.421875 179.179688 122.175781 178.992188 C 120.847656 177.976562 120.988281 178.238281 119.730469 179.273438 C 118.273438 180.464844 117.160156 181.949219 116.183594 183.53125 C 115.597656 184.472656 115.234375 185.554688 114.691406 186.527344 C 113.9375 187.878906 113.195312 189.234375 111.914062 190.21875 C 111.394531 190.613281 111.042969 191.238281 110.628906 191.769531 C 109.691406 192.984375 108.589844 194.105469 107.878906 195.4375 C 107.015625 197.066406 105.546875 198.105469 104.429688 199.46875 C 102.851562 201.394531 100.914062 203.042969 99.03125 204.695312 C 97.4375 206.085938 95.582031 207.1875 94.058594 208.648438 C 92.777344 209.878906 91.441406 210.972656 89.898438 211.832031 C 89.515625 212.046875 89.1875 212.355469 88.824219 212.605469 C 87.742188 213.351562 86.878906 212.808594 86.066406 212.097656 C 85.710938 211.789062 85.351562 211.46875 85.039062 211.113281 C 84.597656 210.605469 84.453125 210.089844 84.871094 209.429688 C 85.742188 208.046875 84.78125 206.359375 83.175781 206.199219 C 82.53125 206.132812 81.871094 205.828125 81.304688 205.492188 C 79.667969 204.507812 78.035156 203.507812 76.484375 202.402344 C 75.597656 201.773438 74.839844 200.953125 74.074219 200.167969 C 73.398438 199.472656 72.253906 199.269531 71.496094 199.839844 C 70.386719 200.675781 69.207031 201.40625 68.316406 202.535156 C 67.898438 203.0625 67.082031 203.253906 66.480469 203.652344 C 65.6875 204.171875 64.933594 204.753906 64.152344 205.289062 C 62.613281 206.34375 61.054688 207.371094 59.527344 208.441406 C 58.464844 209.1875 57.421875 209.964844 56.402344 210.773438 C 56.015625 211.078125 55.773438 211.566406 55.378906 211.855469 C 54.03125 212.84375 52.613281 213.738281 51.285156 214.753906 C 50.078125 215.675781 49.011719 216.777344 47.785156 217.667969 C 46.996094 218.234375 46.398438 219.214844 45.269531 219.1875 C 44.007812 219.15625 42.726562 219.144531 41.492188 218.917969 C 40.734375 218.777344 40.070312 218.195312 39.332031 217.914062 C 38.738281 217.6875 38.074219 217.640625 37.460938 217.460938 C 36.824219 217.273438 36.203125 217.027344 35.578125 216.800781 C 35.117188 216.628906 34.640625 216.273438 34.195312 216.308594 C 33.210938 216.378906 32.683594 215.640625 31.953125 215.273438 C 31.054688 214.8125 30.191406 214.292969 29.300781 213.816406 C 28.816406 213.558594 28.332031 213.269531 27.8125 213.105469 C 27.074219 212.875 26.289062 212.5625 25.550781 212.625 C 24.398438 212.71875 23.210938 212.957031 22.144531 213.394531 C 20.5625 214.039062 19.039062 214.859375 17.542969 215.707031 C 15.925781 216.617188 14.375 217.648438 12.792969 218.621094 C 10.390625 220.101562 7.996094 221.597656 5.570312 223.042969 C 4.824219 223.484375 4.003906 223.746094 3.082031 223.476562 C 2.679688 223.355469 2.195312 223.519531 1.777344 223.417969 C 1.382812 223.324219 0.886719 223.132812 0.714844 222.828125 C 0.597656 222.613281 0.847656 221.972656 1.109375 221.800781 C 2.84375 220.671875 4.625 219.625 6.382812 218.53125 C 7.453125 217.871094 8.496094 217.164062 9.554688 216.484375 C 10.355469 215.972656 11.160156 215.46875 11.960938 214.949219 C 12.214844 214.785156 12.484375 214.628906 12.71875 214.433594 C 13.988281 213.359375 15.21875 212.234375 16.523438 211.203125 C 18.101562 209.945312 19.851562 208.882812 21.324219 207.515625 C 22.492188 206.429688 23.714844 205.472656 25.054688 204.625 C 25.773438 204.164062 26.371094 204.214844 26.972656 204.832031 C 27.273438 205.144531 27.667969 205.363281 28 205.648438 C 28.351562 205.949219 28.660156 206.308594 29.023438 206.59375 C 29.628906 207.070312 30.265625 207.5 30.875 207.957031 C 31.773438 208.625 32.644531 209.328125 33.5625 209.960938 C 34.113281 210.339844 34.738281 210.613281 35.324219 210.941406 C 37.003906 211.886719 38.824219 212.335938 40.730469 212.3125 C 41.414062 212.304688 42.117188 212.089844 42.761719 211.84375 C 45.878906 210.671875 48.265625 208.316406 51.085938 206.660156 C 52.609375 205.765625 54.105469 204.816406 55.589844 203.863281 C 56.640625 203.1875 57.640625 202.4375 58.6875 201.765625 C 59.480469 201.253906 60.351562 200.863281 61.128906 200.335938 C 62.210938 199.601562 63.222656 198.757812 64.292969 198.007812 C 64.832031 197.628906 65.460938 197.386719 66 197.011719 C 66.660156 196.546875 67.292969 196.042969 67.890625 195.507812 C 68.9375 194.574219 70.210938 193.996094 71.222656 192.921875 C 72.566406 191.480469 74.296875 190.328125 76.035156 189.355469 C 77.59375 188.484375 79.800781 188.523438 80.445312 190.78125 C 80.589844 191.289062 80.914062 191.75 81.03125 192.261719 C 81.226562 193.125 81.828125 193.152344 82.5 193.105469 C 83.148438 193.0625 83.929688 192.757812 84.410156 193.015625 C 85.191406 193.4375 85.886719 194.140625 86.394531 194.882812 C 86.953125 195.6875 87.269531 196.667969 87.683594 197.574219 C 87.9375 198.128906 88.199219 198.679688 88.429688 199.25 C 88.644531 199.773438 88.816406 200.3125 89.015625 200.863281 C 89.898438 200.214844 90.679688 199.6875 91.402344 199.089844 C 91.980469 198.609375 92.46875 198.023438 93.027344 197.515625 C 94.496094 196.183594 95.972656 194.867188 97.453125 193.550781 C 97.882812 193.167969 98.304688 192.765625 98.78125 192.449219 C 99.636719 191.886719 100.023438 192.019531 100.617188 192.835938 C 100.847656 193.15625 101.171875 193.457031 101.519531 193.640625 C 102.335938 194.066406 102.792969 193.882812 103.171875 193.023438 C 103.710938 191.796875 104.1875 190.546875 104.746094 189.332031 C 105.449219 187.800781 106.148438 186.253906 106.980469 184.792969 C 107.277344 184.269531 107.988281 183.996094 108.464844 183.5625 C 109.257812 182.84375 110 182.0625 110.796875 181.347656 C 112.386719 179.917969 112.914062 177.855469 113.933594 176.09375 C 114.257812 175.527344 114.261719 174.789062 114.476562 174.148438 C 114.921875 172.808594 115.363281 171.46875 115.890625 170.15625 C 116.367188 168.980469 116.953125 167.839844 117.496094 166.691406 C 117.929688 165.765625 118.59375 165.386719 119.519531 165.753906 C 120.546875 166.167969 121.523438 166.726562 122.488281 167.289062 C 123.082031 167.636719 123.476562 167.671875 124.003906 167.105469 C 125.09375 165.929688 126.386719 165.136719 128.121094 165.292969 C 128.515625 165.324219 129.027344 164.992188 129.34375 164.683594 C 129.882812 164.15625 130.304688 163.507812 130.78125 162.917969 C 131.71875 161.746094 132.683594 160.59375 133.589844 159.402344 C 134.289062 158.496094 134.9375 157.550781 135.585938 156.605469 C 136.390625 155.433594 137.15625 154.269531 138.25 153.285156 C 139.273438 152.355469 139.925781 151.019531 140.765625 149.875 C 142.101562 148.050781 143.171875 146.007812 144.972656 144.527344 C 146.09375 143.605469 147.40625 143.125 148.800781 143.019531 C 150.082031 142.921875 151.0625 143.707031 151.445312 144.980469 C 151.867188 146.386719 152.699219 147.511719 153.613281 148.609375 C 154.542969 149.726562 155.472656 150.84375 156.367188 151.988281 C 156.730469 152.457031 157.019531 152.441406 157.378906 152.035156 C 157.714844 151.652344 158.03125 151.242188 158.410156 150.914062 C 158.734375 150.632812 159.222656 150.183594 159.496094 150.269531 C 160.238281 150.492188 161.125 150.355469 161.566406 151.464844 C 161.878906 152.242188 162.847656 152.828125 163.628906 153.332031 C 164.703125 154.023438 165.949219 154.457031 166.992188 155.1875 C 167.84375 155.78125 168.570312 156.59375 169.25 157.398438 C 170.191406 158.511719 171.082031 159.675781 171.914062 160.871094 C 172.90625 162.308594 173.726562 163.867188 174.777344 165.253906 C 175.984375 166.84375 176.898438 168.703125 178.710938 169.78125 C 179.011719 169.957031 179.226562 170.296875 179.441406 170.59375 C 180 171.355469 180.480469 171.429688 181.117188 170.71875 C 181.929688 169.828125 182.839844 169.28125 184.078125 169.550781 " fill-opacity="1" fill-rule="nonzero"/></g></svg>